<svg width="93" height="93" viewBox="0 0 93 93" fill="none" xmlns="http://www.w3.org/2000/svg">
<path d="M41.6958 12.1208H11.5991C9.31846 12.1208 7.13125 13.0267 5.51861 14.6394C3.90597 16.252 3 18.4392 3 20.7198V80.9134C3 83.194 3.90597 85.3812 5.51861 86.9938C7.13125 88.6065 9.31846 89.5124 11.5991 89.5124H71.7926C74.0732 89.5124 76.2604 88.6065 77.8731 86.9938C79.4857 85.3812 80.3917 83.194 80.3917 80.9134V50.8166" stroke="white" stroke-width="6" stroke-linecap="round" stroke-linejoin="round"/>
<path d="M73.9424 5.67139C75.6528 3.96093 77.9727 3 80.3917 3C82.8106 3 85.1305 3.96093 86.841 5.67139C88.5514 7.38185 89.5124 9.70174 89.5124 12.1207C89.5124 14.5397 88.5514 16.8595 86.841 18.57L45.9954 59.4156L28.7972 63.7152L33.0967 46.517L73.9424 5.67139Z" stroke="white" stroke-width="6" stroke-linecap="round" stroke-linejoin="round"/>
</svg>
