<svg width="37" height="37" viewBox="0 0 37 37" fill="none" xmlns="http://www.w3.org/2000/svg">
<path d="M16.5424 5.4277H5.23164C4.37455 5.4277 3.55257 5.76818 2.94652 6.37423C2.34048 6.98028 2 7.80226 2 8.65934V31.2808C2 32.1379 2.34048 32.9599 2.94652 33.5659C3.55257 34.172 4.37455 34.5124 5.23164 34.5124H27.8531C28.7102 34.5124 29.5322 34.172 30.1382 33.5659C30.7443 32.9599 31.0847 32.1379 31.0847 31.2808V19.9701" stroke="black" stroke-width="3" stroke-linecap="round" stroke-linejoin="round"/>
<path d="M28.661 3.00394C29.3038 2.36113 30.1757 2 31.0847 2C31.9938 2 32.8657 2.36113 33.5085 3.00394C34.1513 3.64675 34.5124 4.5186 34.5124 5.42767C34.5124 6.33674 34.1513 7.20859 33.5085 7.8514L18.1582 23.2017L11.6949 24.8175L13.3107 18.3542L28.661 3.00394Z" stroke="black" stroke-width="3" stroke-linecap="round" stroke-linejoin="round"/>
</svg>
