<svg width="29" height="30" viewBox="0 0 29 30" fill="none" xmlns="http://www.w3.org/2000/svg">
<path d="M22.8333 10.3333C22.8333 8.1232 21.9554 6.00358 20.3926 4.44078C18.8298 2.87797 16.7101 2 14.5 2C12.2899 2 10.1702 2.87797 8.60744 4.44078C7.04464 6.00358 6.16667 8.1232 6.16667 10.3333C6.16667 20.0556 2 22.8333 2 22.8333H27C27 22.8333 22.8333 20.0556 22.8333 10.3333Z" fill="#C4C4C4" stroke="black" stroke-width="3" stroke-linecap="round" stroke-linejoin="round"/>
<path d="M16.9028 26.8385C16.6586 27.2594 16.3081 27.6088 15.8864 27.8517C15.4647 28.0946 14.9866 28.2225 14.5 28.2225C14.0134 28.2225 13.5353 28.0946 13.1136 27.8517C12.6919 27.6088 12.3414 27.2594 12.0972 26.8385" fill="#C4C4C4"/>
<path d="M16.9028 26.8385C16.6586 27.2594 16.3081 27.6088 15.8864 27.8517C15.4647 28.0946 14.9866 28.2225 14.5 28.2225C14.0134 28.2225 13.5353 28.0946 13.1136 27.8517C12.6919 27.6088 12.3414 27.2594 12.0972 26.8385" stroke="black" stroke-width="3" stroke-linecap="round" stroke-linejoin="round"/>
</svg>
